<svg width="2048" height="2048" viewBox="0 0 2048 2048" fill="none" xmlns="http://www.w3.org/2000/svg">
<rect width="2048" height="2048" fill="black"/>
<path d="M1152.11 1669.54H1088.12V1847H1062.01V1669.54H998.16V1647.94H1152.11V1669.54ZM1225.39 1849.73C1205.33 1849.73 1189.02 1843.17 1176.44 1830.05C1163.86 1816.83 1157.57 1799.19 1157.57 1777.14V1772.49C1157.57 1757.81 1160.35 1744.73 1165.91 1733.25C1171.57 1721.67 1179.4 1712.65 1189.43 1706.18C1199.55 1699.62 1210.48 1696.34 1222.24 1696.34C1241.47 1696.34 1256.42 1702.67 1267.09 1715.34C1277.75 1728.01 1283.08 1746.15 1283.08 1769.75V1780.28H1182.87C1183.23 1794.86 1187.47 1806.67 1195.58 1815.69C1203.79 1824.62 1214.18 1829.09 1226.75 1829.09C1235.69 1829.09 1243.25 1827.27 1249.45 1823.62C1255.65 1819.98 1261.07 1815.14 1265.72 1809.13L1281.17 1821.16C1268.77 1840.21 1250.18 1849.73 1225.39 1849.73ZM1222.24 1717.12C1212.03 1717.12 1203.47 1720.85 1196.54 1728.33C1189.61 1735.71 1185.33 1746.1 1183.69 1759.5H1257.79V1757.59C1257.06 1744.73 1253.6 1734.8 1247.4 1727.78C1241.2 1720.67 1232.82 1717.12 1222.24 1717.12ZM1339.96 1847H1314.66V1637H1339.96V1847ZM1408.04 1847H1382.75V1637H1408.04V1847ZM1441.95 1771.67C1441.95 1757.18 1444.77 1744.14 1450.43 1732.57C1456.17 1720.99 1464.1 1712.06 1474.21 1705.77C1484.42 1699.48 1496.04 1696.34 1509.08 1696.34C1529.22 1696.34 1545.49 1703.31 1557.89 1717.25C1570.37 1731.2 1576.62 1749.75 1576.62 1772.9V1774.68C1576.62 1789.08 1573.84 1802.02 1568.28 1813.5C1562.81 1824.9 1554.92 1833.78 1544.62 1840.16C1534.42 1846.54 1522.66 1849.73 1509.35 1849.73C1489.3 1849.73 1473.03 1842.76 1460.54 1828.82C1448.15 1814.87 1441.95 1796.41 1441.95 1773.45V1771.67ZM1467.38 1774.68C1467.38 1791.08 1471.16 1804.25 1478.73 1814.19C1486.38 1824.12 1496.59 1829.09 1509.35 1829.09C1522.2 1829.09 1532.41 1824.08 1539.98 1814.05C1547.54 1803.93 1551.32 1789.81 1551.32 1771.67C1551.32 1755.44 1547.45 1742.32 1539.7 1732.29C1532.05 1722.18 1521.84 1717.12 1509.08 1717.12C1496.59 1717.12 1486.52 1722.08 1478.86 1732.02C1471.21 1741.95 1467.38 1756.17 1467.38 1774.68ZM1608.88 1833.74C1608.88 1829.36 1610.16 1825.72 1612.71 1822.8C1615.35 1819.88 1619.27 1818.43 1624.47 1818.43C1629.66 1818.43 1633.58 1819.88 1636.23 1822.8C1638.96 1825.72 1640.33 1829.36 1640.33 1833.74C1640.33 1837.93 1638.96 1841.44 1636.23 1844.27C1633.58 1847.09 1629.66 1848.5 1624.47 1848.5C1619.27 1848.5 1615.35 1847.09 1612.71 1844.27C1610.16 1841.44 1608.88 1837.93 1608.88 1833.74ZM1716.48 1663.25V1699.07H1744.1V1718.62H1716.48V1810.36C1716.48 1816.28 1717.71 1820.75 1720.17 1823.76C1722.63 1826.67 1726.83 1828.13 1732.75 1828.13C1735.67 1828.13 1739.68 1827.59 1744.78 1826.49V1847C1738.13 1848.82 1731.66 1849.73 1725.37 1849.73C1714.07 1849.73 1705.54 1846.32 1699.8 1839.48C1694.06 1832.64 1691.19 1822.94 1691.19 1810.36V1718.62H1664.25V1699.07H1691.19V1663.25H1716.48ZM1859.9 1807.76C1859.9 1800.93 1857.3 1795.64 1852.11 1791.9C1847 1788.07 1838.02 1784.79 1825.17 1782.06C1812.41 1779.32 1802.25 1776.04 1794.68 1772.21C1787.21 1768.39 1781.65 1763.83 1778 1758.54C1774.45 1753.26 1772.67 1746.97 1772.67 1739.68C1772.67 1727.55 1777.78 1717.3 1787.98 1708.91C1798.28 1700.53 1811.41 1696.34 1827.36 1696.34C1844.13 1696.34 1857.71 1700.67 1868.1 1709.32C1878.58 1717.98 1883.82 1729.06 1883.82 1742.55H1858.39C1858.39 1735.62 1855.43 1729.65 1849.51 1724.64C1843.67 1719.62 1836.29 1717.12 1827.36 1717.12C1818.15 1717.12 1810.95 1719.12 1805.76 1723.13C1800.56 1727.14 1797.96 1732.38 1797.96 1738.86C1797.96 1744.96 1800.38 1749.57 1805.21 1752.66C1810.04 1755.76 1818.75 1758.73 1831.32 1761.55C1843.99 1764.38 1854.25 1767.75 1862.09 1771.67C1869.92 1775.59 1875.71 1780.33 1879.45 1785.89C1883.28 1791.36 1885.19 1798.05 1885.19 1805.98C1885.19 1819.2 1879.9 1829.82 1869.33 1837.84C1858.76 1845.77 1845.04 1849.73 1828.18 1849.73C1816.33 1849.73 1805.85 1847.64 1796.73 1843.45C1787.62 1839.25 1780.46 1833.42 1775.27 1825.95C1770.17 1818.38 1767.61 1810.22 1767.61 1801.47H1792.91C1793.36 1809.95 1796.73 1816.69 1803.02 1821.71C1809.4 1826.63 1817.79 1829.09 1828.18 1829.09C1837.75 1829.09 1845.41 1827.18 1851.15 1823.35C1856.98 1819.43 1859.9 1814.23 1859.9 1807.76Z" fill="white"/>
</svg>
